<svg xmlns="http://www.w3.org/2000/svg" width="485" height="471" viewBox="0 0 485 471" version="1.1"><path d="M 188 82.500 C 189.292 83.875, 190.574 85, 190.849 85 C 191.124 85, 190.292 83.875, 189 82.500 C 187.708 81.125, 186.426 80, 186.151 80 C 185.876 80, 186.708 81.125, 188 82.500 M 239.500 85 C 242.209 87.750, 244.650 90, 244.925 90 C 245.200 90, 243.209 87.750, 240.500 85 C 237.791 82.250, 235.350 80, 235.075 80 C 234.800 80, 236.791 82.250, 239.500 85 M 232.500 95 C 235.766 98.300, 238.662 101, 238.937 101 C 239.212 101, 236.766 98.300, 233.500 95 C 230.234 91.700, 227.338 89, 227.063 89 C 226.788 89, 229.234 91.700, 232.500 95 M 155 98.500 C 156.866 100.425, 158.617 102, 158.892 102 C 159.167 102, 157.866 100.425, 156 98.500 C 154.134 96.575, 152.383 95, 152.108 95 C 151.833 95, 153.134 96.575, 155 98.500 M 198.500 110 C 202.320 113.850, 205.671 117, 205.946 117 C 206.221 117, 203.320 113.850, 199.500 110 C 195.680 106.150, 192.329 103, 192.054 103 C 191.779 103, 194.680 106.150, 198.500 110 M 216 111.500 C 217.866 113.425, 219.617 115, 219.892 115 C 220.167 115, 218.866 113.425, 217 111.500 C 215.134 109.575, 213.383 108, 213.108 108 C 212.833 108, 214.134 109.575, 216 111.500 M 155.500 116 C 158.766 119.300, 161.662 122, 161.937 122 C 162.212 122, 159.766 119.300, 156.500 116 C 153.234 112.700, 150.338 110, 150.063 110 C 149.788 110, 152.234 112.700, 155.500 116 M 273 119.500 C 276.543 123.075, 279.667 126, 279.942 126 C 280.217 126, 277.543 123.075, 274 119.500 C 270.457 115.925, 267.333 113, 267.058 113 C 266.783 113, 269.457 115.925, 273 119.500 M 239 118.275 C 239 118.426, 242.488 121.914, 246.750 126.025 L 254.500 133.500 247.025 125.750 C 240.082 118.552, 239 117.544, 239 118.275 M 262.500 126 C 265.766 129.300, 268.662 132, 268.937 132 C 269.212 132, 266.766 129.300, 263.500 126 C 260.234 122.700, 257.338 120, 257.063 120 C 256.788 120, 259.234 122.700, 262.500 126 M 99 125.500 C 100.866 127.425, 102.617 129, 102.892 129 C 103.167 129, 101.866 127.425, 100 125.500 C 98.134 123.575, 96.383 122, 96.108 122 C 95.833 122, 97.134 123.575, 99 125.500 M 200.958 129.250 C 205.102 133.665, 206 134.459, 206 133.708 C 206 133.548, 203.863 131.410, 201.250 128.958 L 196.500 124.500 200.958 129.250 M 184 128.313 C 184 128.485, 185.463 129.948, 187.250 131.563 L 190.500 134.500 187.563 131.250 C 184.825 128.221, 184 127.540, 184 128.313 M 129 139.500 C 132.543 143.075, 135.667 146, 135.942 146 C 136.217 146, 133.543 143.075, 130 139.500 C 126.457 135.925, 123.333 133, 123.058 133 C 122.783 133, 125.457 135.925, 129 139.500 M 176 137.275 C 176 137.426, 179.488 140.914, 183.750 145.025 L 191.500 152.500 184.025 144.750 C 177.082 137.552, 176 136.544, 176 137.275 M 121 148.500 C 124.543 152.075, 127.667 155, 127.942 155 C 128.217 155, 125.543 152.075, 122 148.500 C 118.457 144.925, 115.333 142, 115.058 142 C 114.783 142, 117.457 144.925, 121 148.500 M 154.958 149.250 C 157.410 151.863, 159.548 154, 159.708 154 C 160.459 154, 159.665 153.102, 155.250 148.958 L 150.500 144.500 154.958 149.250 M 307.500 155 C 310.766 158.300, 313.662 161, 313.937 161 C 314.212 161, 311.766 158.300, 308.500 155 C 305.234 151.700, 302.338 149, 302.063 149 C 301.788 149, 304.234 151.700, 307.500 155 M 186 164.500 C 190.651 169.175, 194.681 173, 194.956 173 C 195.231 173, 191.651 169.175, 187 164.500 C 182.349 159.825, 178.319 156, 178.044 156 C 177.769 156, 181.349 159.825, 186 164.500 M 253 166.500 C 254.292 167.875, 255.574 169, 255.849 169 C 256.124 169, 255.292 167.875, 254 166.500 C 252.708 165.125, 251.426 164, 251.151 164 C 250.876 164, 251.708 165.125, 253 166.500 M 206 168.500 C 207.292 169.875, 208.574 171, 208.849 171 C 209.124 171, 208.292 169.875, 207 168.500 C 205.708 167.125, 204.426 166, 204.151 166 C 203.876 166, 204.708 167.125, 206 168.500 M 237.971 173.750 L 231.500 180.500 238.250 174.029 C 241.963 170.470, 245 167.432, 245 167.279 C 245 166.543, 243.982 167.480, 237.971 173.750 M 131.500 176 C 135.874 180.400, 139.678 184, 139.953 184 C 140.228 184, 136.874 180.400, 132.500 176 C 128.126 171.600, 124.322 168, 124.047 168 C 123.772 168, 127.126 171.600, 131.500 176 M 163.500 175 C 166.766 178.300, 169.662 181, 169.937 181 C 170.212 181, 167.766 178.300, 164.500 175 C 161.234 171.700, 158.338 169, 158.063 169 C 157.788 169, 160.234 171.700, 163.500 175 M 89 177.313 C 89 177.485, 90.463 178.948, 92.250 180.563 L 95.500 183.500 92.563 180.250 C 89.825 177.221, 89 176.540, 89 177.313 M 150 178.275 C 150 178.426, 153.488 181.914, 157.750 186.025 L 165.500 193.500 158.025 185.750 C 151.082 178.552, 150 177.544, 150 178.275 M 66.500 187 C 70.320 190.850, 73.671 194, 73.946 194 C 74.221 194, 71.320 190.850, 67.500 187 C 63.680 183.150, 60.329 180, 60.054 180 C 59.779 180, 62.680 183.150, 66.500 187 M 278.500 193 C 284.531 199.050, 289.691 204, 289.966 204 C 290.241 204, 285.531 199.050, 279.500 193 C 273.469 186.950, 268.309 182, 268.034 182 C 267.759 182, 272.469 186.950, 278.500 193 M 341.500 190 C 344.766 193.300, 347.662 196, 347.937 196 C 348.212 196, 345.766 193.300, 342.500 190 C 339.234 186.700, 336.338 184, 336.063 184 C 335.788 184, 338.234 186.700, 341.500 190 M 85 190.500 C 86.292 191.875, 87.574 193, 87.849 193 C 88.124 193, 87.292 191.875, 86 190.500 C 84.708 189.125, 83.426 188, 83.151 188 C 82.876 188, 83.708 189.125, 85 190.500 M 59.500 197 C 63.320 200.850, 66.671 204, 66.946 204 C 67.221 204, 64.320 200.850, 60.500 197 C 56.680 193.150, 53.329 190, 53.054 190 C 52.779 190, 55.680 193.150, 59.500 197 M 134 195.500 C 136.987 198.525, 139.657 201, 139.932 201 C 140.207 201, 137.987 198.525, 135 195.500 C 132.013 192.475, 129.343 190, 129.068 190 C 128.793 190, 131.013 192.475, 134 195.500 M 120 208.500 C 121.292 209.875, 122.574 211, 122.849 211 C 123.124 211, 122.292 209.875, 121 208.500 C 119.708 207.125, 118.426 206, 118.151 206 C 117.876 206, 118.708 207.125, 120 208.500 M 234.500 218 C 240.531 224.050, 245.691 229, 245.966 229 C 246.241 229, 241.531 224.050, 235.500 218 C 229.469 211.950, 224.309 207, 224.034 207 C 223.759 207, 228.469 211.950, 234.500 218 M 42 212.500 C 43.866 214.425, 45.617 216, 45.892 216 C 46.167 216, 44.866 214.425, 43 212.500 C 41.134 210.575, 39.383 209, 39.108 209 C 38.833 209, 40.134 210.575, 42 212.500 M 94 215.275 C 94 215.426, 97.487 218.914, 101.750 223.025 L 109.500 230.500 102.025 222.750 C 95.082 215.552, 94 214.544, 94 215.275 M 143 221.500 C 146.543 225.075, 149.667 228, 149.942 228 C 150.217 228, 147.543 225.075, 144 221.500 C 140.457 217.925, 137.333 215, 137.058 215 C 136.783 215, 139.457 217.925, 143 221.500 M 313 228.500 C 319.307 234.825, 324.692 240, 324.967 240 C 325.242 240, 320.307 234.825, 314 228.500 C 307.693 222.175, 302.308 217, 302.033 217 C 301.758 217, 306.693 222.175, 313 228.500 M 70.958 225.250 C 75.102 229.665, 76 230.459, 76 229.708 C 76 229.548, 73.862 227.410, 71.250 224.958 L 66.500 220.500 70.958 225.250 M 93.500 232 C 97.320 235.850, 100.671 239, 100.946 239 C 101.221 239, 98.320 235.850, 94.500 232 C 90.680 228.150, 87.329 225, 87.054 225 C 86.779 225, 89.680 228.150, 93.500 232 M 171.469 238.250 L 165.500 244.500 171.750 238.531 C 175.188 235.249, 178 232.436, 178 232.281 C 178 231.542, 177.013 232.444, 171.469 238.250 M 72 243.500 C 76.651 248.175, 80.681 252, 80.956 252 C 81.231 252, 77.651 248.175, 73 243.500 C 68.349 238.825, 64.319 235, 64.044 235 C 63.769 235, 67.349 238.825, 72 243.500 M 194.500 245 C 197.766 248.300, 200.662 251, 200.937 251 C 201.212 251, 198.766 248.300, 195.500 245 C 192.234 241.700, 189.338 239, 189.063 239 C 188.788 239, 191.234 241.700, 194.500 245 M 268.982 253.250 C 278.718 263.235, 280 264.454, 280 263.732 C 280 263.585, 275.163 258.747, 269.250 252.982 L 258.500 242.500 268.982 253.250 M 148.500 271 C 150.648 273.200, 152.631 275, 152.906 275 C 153.181 275, 151.648 273.200, 149.500 271 C 147.352 268.800, 145.369 267, 145.094 267 C 144.819 267, 146.352 268.800, 148.500 271 M 100 272.500 C 101.292 273.875, 102.574 275, 102.849 275 C 103.124 275, 102.292 273.875, 101 272.500 C 99.708 271.125, 98.426 270, 98.151 270 C 97.876 270, 98.708 271.125, 100 272.500 M 228.500 280 C 231.766 283.300, 234.662 286, 234.937 286 C 235.212 286, 232.766 283.300, 229.500 280 C 226.234 276.700, 223.338 274, 223.063 274 C 222.788 274, 225.234 276.700, 228.500 280 M 301.490 292.250 L 283.500 310.500 301.750 292.510 C 318.706 275.797, 320.452 274, 319.740 274 C 319.596 274, 311.384 282.212, 301.490 292.250 M 275.483 296.250 L 264.500 307.500 275.750 296.517 C 281.938 290.476, 287 285.414, 287 285.267 C 287 284.546, 285.684 285.801, 275.483 296.250 M 112 301.500 C 115.543 305.075, 118.667 308, 118.942 308 C 119.217 308, 116.543 305.075, 113 301.500 C 109.457 297.925, 106.333 295, 106.058 295 C 105.783 295, 108.457 297.925, 112 301.500 M 181 304.500 C 184.543 308.075, 187.667 311, 187.942 311 C 188.217 311, 185.543 308.075, 182 304.500 C 178.457 300.925, 175.333 298, 175.058 298 C 174.783 298, 177.457 300.925, 181 304.500 M 334 351.932 L 299.500 385.892 333.781 385.946 C 360.435 385.988, 368.170 385.720, 368.545 384.742 C 368.811 384.051, 368.909 368.744, 368.764 350.728 L 368.500 317.971 334 351.932 M 146 336.500 C 149.543 340.075, 152.667 343, 152.942 343 C 153.217 343, 150.543 340.075, 147 336.500 C 143.457 332.925, 140.333 330, 140.058 330 C 139.783 330, 142.457 332.925, 146 336.500 M 215.500 340 C 218.766 343.300, 221.662 346, 221.937 346 C 222.212 346, 219.766 343.300, 216.500 340 C 213.234 336.700, 210.338 334, 210.063 334 C 209.788 334, 212.234 336.700, 215.500 340 M 181 372.500 C 184.543 376.075, 187.667 379, 187.942 379 C 188.217 379, 185.543 376.075, 182 372.500 C 178.457 368.925, 175.333 366, 175.058 366 C 174.783 366, 177.457 368.925, 181 372.500" stroke="none" fill="#38b6ff" fill-rule="evenodd"/><path d="M 187.655 72.829 C 184.444 76.377, 185.597 79.129, 194.161 88.368 C 198.650 93.211, 203.405 97.584, 204.727 98.086 C 209.640 99.954, 213.942 94.798, 211.472 90 C 209.421 86.016, 193.461 71, 191.277 71 C 190.195 71, 188.565 71.823, 187.655 72.829 M 227.381 82.541 C 226.108 84.485, 225.960 85.601, 226.752 87.291 C 227.322 88.506, 237.286 99.266, 248.894 111.203 C 260.502 123.140, 270 133.623, 270 134.498 C 270 136.645, 265.528 140.995, 263.295 141.020 C 262.259 141.032, 252.829 132.148, 241 120.016 C 229.725 108.452, 219.813 98.993, 218.973 98.995 C 218.132 98.998, 216.445 99.701, 215.223 100.557 C 211.469 103.186, 212.407 106.503, 219 113.921 C 222.300 117.634, 225 121.321, 225 122.114 C 225 124.907, 221.941 128, 219.178 128 C 217.043 128, 213.830 125.353, 204 115.500 C 191.220 102.690, 188.856 101.287, 185.571 104.571 C 181.979 108.164, 183.478 111.014, 195 122.500 C 204.343 131.814, 206 133.940, 206 136.611 C 206 140.282, 204.044 142.250, 200.395 142.250 C 198.494 142.250, 195.735 140.202, 190.126 134.625 C 182.131 126.678, 179.591 125.584, 176.655 128.829 C 173.155 132.696, 174.387 134.635, 192.066 153.098 C 207.809 169.538, 209.108 171.174, 208.816 174.188 C 208.468 177.785, 205.258 180.142, 201.903 179.264 C 200.842 178.987, 190.693 169.139, 179.350 157.380 C 162.007 139.402, 158.273 136, 155.886 136 C 152.103 136, 149.239 140.075, 150.763 143.291 C 151.338 144.506, 157.619 151.575, 164.720 159 C 171.820 166.425, 177.948 173.351, 178.338 174.391 C 179.512 177.527, 176.499 181, 172.604 181 C 169.682 181, 168.174 179.853, 160.770 172 C 151.878 162.569, 148.987 161.156, 145.571 164.571 C 142.110 168.033, 143.550 170.771, 155 182.500 C 164.200 191.924, 166 194.274, 166 196.861 C 166 200.470, 162.289 203.544, 159.139 202.544 C 158.062 202.202, 148.374 192.940, 137.611 181.961 C 121.332 165.357, 117.566 162, 115.220 162 C 111.635 162, 110 163.643, 110 167.244 C 110 169.603, 114.132 174.349, 134.250 195.100 C 160.114 221.777, 161.676 224.012, 156.834 227.404 C 152.568 230.391, 150.901 229.455, 139.776 217.819 L 129.051 206.603 126.711 208.802 C 125.424 210.011, 123.979 211, 123.500 211 C 123.021 211, 118.850 206.950, 114.232 202 C 105.259 192.385, 102.159 190.957, 98.655 194.829 C 95.501 198.314, 96.669 200.629, 107 211.354 C 115.032 219.693, 117 222.314, 117 224.668 C 117 228.423, 115.381 230, 111.525 230 C 109.027 230, 107.052 228.592, 101 222.500 C 95.508 216.971, 92.862 215, 90.930 215 C 88.035 215, 85 217.731, 85 220.337 C 85 221.260, 89.950 227.285, 96 233.724 C 102.765 240.925, 107 246.239, 107 247.525 C 107 250.256, 105.080 252.625, 102.162 253.494 C 100.125 254.101, 97.677 252.056, 83.125 237.595 C 69.939 224.491, 65.867 221, 63.770 221 C 61.096 221, 58 224.111, 58 226.798 C 58 227.542, 68.045 238.579, 80.322 251.325 C 92.599 264.071, 102.889 275.175, 103.190 276 C 104.118 278.544, 102.178 282.022, 99.114 283.310 L 96.193 284.538 125.799 315.019 C 142.083 331.784, 165.598 355.962, 178.057 368.750 L 200.708 392 286.854 392 L 373 392 373 307.004 L 373 222.007 303.933 151.004 C 243.703 89.084, 234.495 80, 231.956 80 C 229.943 80, 228.533 80.783, 227.381 82.541 M 144.557 97.223 C 143.701 98.445, 143 100.081, 143 100.857 C 143 102.359, 160.294 120.519, 163.250 122.122 C 164.409 122.750, 165.760 122.670, 167.250 121.885 C 173.249 118.726, 172.321 116.064, 161.313 104.860 C 150.796 94.155, 147.695 92.742, 144.557 97.223 M 97 115 C 95.900 116.100, 95 117.685, 95 118.522 C 95 120.426, 99.856 125.916, 116.428 142.750 C 126.868 153.354, 130.019 156, 132.213 156 C 135.392 156, 138.499 152.120, 137.579 149.299 C 137.256 148.310, 129.456 139.725, 120.246 130.223 C 102.618 112.036, 101.014 110.986, 97 115 M 232.410 179.181 C 223.828 187.607, 216.408 195.244, 215.920 196.153 C 215.210 197.477, 222.705 205.685, 253.586 237.402 C 279.768 264.291, 292.037 277.567, 291.820 278.773 C 291.400 281.102, 261.730 310, 259.759 310 C 258.924 310, 241.009 292.225, 219.950 270.500 C 198.890 248.775, 180.978 231, 180.146 231 C 177.891 231, 144.870 264.183, 145.213 266.103 C 145.371 266.987, 165.494 288.267, 189.931 313.393 L 234.362 359.076 254.431 339.257 C 265.469 328.356, 289.171 304.918, 307.102 287.172 L 339.703 254.906 333.954 249.203 C 330.792 246.066, 310.964 225.725, 289.892 204 C 268.819 182.275, 250.776 164.357, 249.796 164.181 C 248.611 163.970, 242.778 169.002, 232.410 179.181 M 81.440 179.451 C 79.299 182.719, 80.186 184.995, 85.516 189.908 C 90.419 194.427, 91.516 194.728, 94.777 192.443 C 98.373 189.925, 97.664 186.068, 92.712 181.208 C 87.645 176.236, 83.927 175.656, 81.440 179.451 M 52.655 180.829 C 49.339 184.493, 50.595 187.028, 61.041 197.750 C 69.271 206.198, 71.548 208, 73.990 208 C 77.459 208, 80.424 204.370, 79.388 201.391 C 79.026 200.351, 74.186 194.887, 68.633 189.250 C 58.158 178.617, 55.788 177.367, 52.655 180.829 M 40.073 202.635 C 38.933 204.084, 38 205.669, 38 206.157 C 38 206.645, 39.857 209.060, 42.127 211.522 C 46.978 216.785, 50.956 217.524, 53.504 213.635 C 55.533 210.537, 54.345 207.388, 49.561 203.188 C 45.145 199.310, 42.795 199.173, 40.073 202.635 M 334 351.932 L 299.500 385.892 333.781 385.946 C 360.435 385.988, 368.170 385.720, 368.545 384.742 C 368.811 384.051, 368.909 368.744, 368.764 350.728 L 368.500 317.971 334 351.932" stroke="none" fill="#080d11" fill-rule="evenodd"/></svg>